ffmpeg started on 2025-06-19 at 09:56:48
Report written to "D:\Convert\FFMetrics\reports\psnr_report-6.txt"
Log level: 32
Command line:
ffmpeg -hide_banner -nostdin -i "G:\\\xc0\xed\xe8\xec\xe5\\[\xd2\xee\xef-4]\\RErideD - \xc4\xe5\xf0\xf0\xe8\xe4\xe0, \xef\xee\xea\xee\xf0\xe8\xe2\xf8\xe8\xe9 \xe2\xf0\xe5\xec\xff\\RErideD_Koku_Koe_no_Derrida_[01]_[AniLibria_TV]_[WEBRip_720p]_HEVC.mkv" -i "G:\\\xc0\xed\xe8\xec\xe5\\[\xd2\xee\xef-4]\\RErideD - \xc4\xe5\xf0\xf0\xe8\xe4\xe0, \xef\xee\xea\xee\xf0\xe8\xe2\xf8\xe8\xe9 \xe2\xf0\xe5\xec\xff\\RErideD_Koku_Koe_no_Derrida_[01]_[AniLibria_TV]_[WEBRip_720p].mkv" -lavfi "[0:v]settb=AVTB,setpts=PTS-STARTPTS,format=pix_fmts=yuv420p10,fps=24000/1001,scale=1280:720:flags=bicubic[main];[1:v]settb=AVTB,setpts=PTS-STARTPTS,format=pix_fmts=yuv420p,fps=24000/1001,scale=1280:720:flags=bicubic[ref];[main][ref]psnr=eof_action=endall:stats_file='D\\:/Convert/FFMetrics/logs/psnr_logfile-6.txt'" -f null -
Input #0, matroska,webm, from 'G:\Аниме\[Топ-4]\RErideD - Деррида, покоривший время\RErideD_Koku_Koe_no_Derrida_[01]_[AniLibria_TV]_[WEBRip_720p]_HEVC.mkv':
  Metadata:
    ENCODER         : Lavf61.7.100
  Duration: 00:23:40.25, start: -0.021000, bitrate: 515 kb/s
  Stream #0:0(jpn): Video: hevc (Main 10), yuv420p10le(tv, bt709, progressive), 1280x720 [SAR 1:1 DAR 16:9], 23.98 fps, 23.98 tbr, 1k tbn
      Metadata:
        ENCODER         : Lavc61.19.100 libx265
        BPS             : 316593
        DURATION        : 00:23:39.918708333
        NUMBER_OF_FRAMES: 34044
        NUMBER_OF_BYTES : 56192061
        _STATISTICS_WRITING_APP: mkvpropedit v66.0.0 ('Josie') 64-bit
        _STATISTICS_WRITING_DATE_UTC: 2025-06-17 14:35:07
        _STATISTICS_TAGS: BPS DURATION NUMBER_OF_FRAMES NUMBER_OF_BYTES
  Stream #0:1(rus): Audio: aac (LC), 48000 Hz, stereo, fltp (default) (forced)
      Metadata:
        title           : AniLibria.TV
        ENCODER         : Lavc61.19.100 aac
        BPS             : 194613
        DURATION        : 00:23:39.947000000
        NUMBER_OF_FRAMES: 66561
        NUMBER_OF_BYTES : 34542629
        _STATISTICS_WRITING_APP: mkvpropedit v66.0.0 ('Josie') 64-bit
        _STATISTICS_WRITING_DATE_UTC: 2025-06-17 14:35:07
        _STATISTICS_TAGS: BPS DURATION NUMBER_OF_FRAMES NUMBER_OF_BYTES
  Stream #0:2(rus): Subtitle: ass (ssa)
      Metadata:
        title           : Полные субтитры
        BPS             : 139
        DURATION        : 00:23:34.100000000
        NUMBER_OF_FRAMES: 352
        NUMBER_OF_BYTES : 24573
        _STATISTICS_WRITING_APP: mkvpropedit v66.0.0 ('Josie') 64-bit
        _STATISTICS_WRITING_DATE_UTC: 2025-06-17 14:35:07
        _STATISTICS_TAGS: BPS DURATION NUMBER_OF_FRAMES NUMBER_OF_BYTES
Input #1, matroska,webm, from 'G:\Аниме\[Топ-4]\RErideD - Деррида, покоривший время\RErideD_Koku_Koe_no_Derrida_[01]_[AniLibria_TV]_[WEBRip_720p].mkv':
  Metadata:
    encoder         : libebml v1.4.2 + libmatroska v1.6.4
    creation_time   : 2024-12-15T11:01:37.000000Z
  Duration: 00:23:40.25, start: 0.000000, bitrate: 1745 kb/s
  Stream #1:0(jpn): Video: h264 (High), yuv420p(progressive), 1280x720 [SAR 1:1 DAR 16:9], 23.98 fps, 23.98 tbr, 1k tbn
      Metadata:
        BPS             : 1546195
        DURATION        : 00:23:39.920000000
        NUMBER_OF_FRAMES: 34044
        NUMBER_OF_BYTES : 274434263
        _STATISTICS_WRITING_APP: mkvmerge v66.0.0 ('Josie') 64-bit
        _STATISTICS_WRITING_DATE_UTC: 2024-12-15 11:01:37
        _STATISTICS_TAGS: BPS DURATION NUMBER_OF_FRAMES NUMBER_OF_BYTES
  Stream #1:1(rus): Audio: aac (LC), 48000 Hz, stereo, fltp (default) (forced)
      Metadata:
        title           : AniLibria.TV
        BPS             : 195508
        DURATION        : 00:23:39.947000000
        NUMBER_OF_FRAMES: 66560
        NUMBER_OF_BYTES : 34701496
        _STATISTICS_WRITING_APP: mkvmerge v66.0.0 ('Josie') 64-bit
        _STATISTICS_WRITING_DATE_UTC: 2024-12-15 11:01:37
        _STATISTICS_TAGS: BPS DURATION NUMBER_OF_FRAMES NUMBER_OF_BYTES
  Stream #1:2(rus): Subtitle: ass (ssa)
      Metadata:
        title           : Полные субтитры
        BPS             : 139
        DURATION        : 00:23:34.100000000
        NUMBER_OF_FRAMES: 352
        NUMBER_OF_BYTES : 24573
        _STATISTICS_WRITING_APP: mkvmerge v66.0.0 ('Josie') 64-bit
        _STATISTICS_WRITING_DATE_UTC: 2024-12-15 11:01:37
        _STATISTICS_TAGS: BPS DURATION NUMBER_OF_FRAMES NUMBER_OF_BYTES
  Stream #1:3: Attachment: ttf
      Metadata:
        filename        : OpenSans-Semibold.ttf
        mimetype        : application/x-truetype-font
Stream mapping:
  Stream #0:0 (hevc) -> settb:default
  Stream #1:0 (h264) -> settb:default
  psnr:default -> Stream #0:0 (wrapped_avframe)
  Stream #0:1 -> #0:1 (aac (native) -> pcm_s16le (native))
[swscaler @ 000001e3d3f0b240] No accelerated colorspace conversion found from yuv420p to bgr48le.
[swscaler @ 000001e3d42ee700] No accelerated colorspace conversion found from yuv420p to bgr48le.
[swscaler @ 000001e3d4410dc0] No accelerated colorspace conversion found from yuv420p to bgr48le.
[swscaler @ 000001e3d44714c0] No accelerated colorspace conversion found from yuv420p to bgr48le.
[swscaler @ 000001e3d44df840] No accelerated colorspace conversion found from yuv420p to bgr48le.
[swscaler @ 000001e3d455a3c0] No accelerated colorspace conversion found from yuv420p to bgr48le.
[swscaler @ 000001e3d45d7bc0] No accelerated colorspace conversion found from yuv420p to bgr48le.
[swscaler @ 000001e3d4637bc0] No accelerated colorspace conversion found from yuv420p to bgr48le.
[swscaler @ 000001e3d4694040] No accelerated colorspace conversion found from yuv420p to bgr48le.
[swscaler @ 000001e3d4729040] No accelerated colorspace conversion found from yuv420p to bgr48le.
[swscaler @ 000001e3d4786040] No accelerated colorspace conversion found from yuv420p to bgr48le.
[swscaler @ 000001e3d47f3040] No accelerated colorspace conversion found from yuv420p to bgr48le.
[swscaler @ 000001e3d4850040] No accelerated colorspace conversion found from yuv420p to bgr48le.
[swscaler @ 000001e3d48ee040] No accelerated colorspace conversion found from yuv420p to bgr48le.
[swscaler @ 000001e3d494b040] No accelerated colorspace conversion found from yuv420p to bgr48le.
[swscaler @ 000001e3d497c140] No accelerated colorspace conversion found from yuv420p to bgr48le.
Output #0, null, to 'pipe:':
  Metadata:
    encoder         : Lavf61.7.100
  Stream #0:0: Video: wrapped_avframe, yuv420p10le(tv, bt709, progressive), 1280x720 [SAR 1:1 DAR 16:9], q=2-31, 200 kb/s, 23.98 fps, 23.98 tbn
      Metadata:
        encoder         : Lavc61.19.100 wrapped_avframe
  Stream #0:1(rus): Audio: pcm_s16le, 48000 Hz, stereo, s16, 1536 kb/s (default) (forced)
      Metadata:
        title           : AniLibria.TV
        _STATISTICS_TAGS: BPS DURATION NUMBER_OF_FRAMES NUMBER_OF_BYTES
        BPS             : 194613
        DURATION        : 00:23:39.947000000
        NUMBER_OF_FRAMES: 66561
        NUMBER_OF_BYTES : 34542629
        _STATISTICS_WRITING_APP: mkvpropedit v66.0.0 ('Josie') 64-bit
        _STATISTICS_WRITING_DATE_UTC: 2025-06-17 14:35:07
        encoder         : Lavc61.19.100 pcm_s16le
frame=   84 fps=0.0 q=-0.0 size=N/A time=00:00:03.50 bitrate=N/A speed=6.88x    frame=  175 fps=169 q=-0.0 size=N/A time=00:00:07.29 bitrate=N/A speed=7.05x    frame=  272 fps=176 q=-0.0 size=N/A time=00:00:11.34 bitrate=N/A speed=7.34x    frame=  367 fps=178 q=-0.0 size=N/A time=00:00:15.30 bitrate=N/A speed=7.44x    frame=  460 fps=179 q=-0.0 size=N/A time=00:00:19.18 bitrate=N/A speed=7.47x    frame=  558 fps=180 q=-0.0 size=N/A time=00:00:23.27 bitrate=N/A speed=7.52x    frame=  651 fps=181 q=-0.0 size=N/A time=00:00:27.15 bitrate=N/A speed=7.53x    frame=  743 fps=180 q=-0.0 size=N/A time=00:00:30.98 bitrate=N/A speed=7.51x    frame=  844 fps=182 q=-0.0 size=N/A time=00:00:35.20 bitrate=N/A speed=7.59x    frame=  941 fps=182 q=-0.0 size=N/A time=00:00:39.24 bitrate=N/A speed=7.61x    frame= 1033 fps=182 q=-0.0 size=N/A time=00:00:43.08 bitrate=N/A speed= 7.6x    frame= 1130 fps=183 q=-0.0 size=N/A time=00:00:47.13 bitrate=N/A speed=7.61x    frame= 1220 fps=182 q=-0.0 size=N/A time=00:00:50.88 bitrate=N/A speed= 7.6x    frame= 1324 fps=183 q=-0.0 size=N/A time=00:00:55.22 bitrate=N/A speed=7.65x    frame= 1419 fps=184 q=-0.0 size=N/A time=00:00:59.18 bitrate=N/A speed=7.66x    frame= 1513 fps=184 q=-0.0 size=N/A time=00:01:03.10 bitrate=N/A speed=7.66x    frame= 1607 fps=183 q=-0.0 size=N/A time=00:01:07.02 bitrate=N/A speed=7.65x    frame= 1704 fps=184 q=-0.0 size=N/A time=00:01:11.07 bitrate=N/A speed=7.66x    frame= 1799 fps=184 q=-0.0 size=N/A time=00:01:15.03 bitrate=N/A speed=7.66x    frame= 1890 fps=183 q=-0.0 size=N/A time=00:01:18.82 bitrate=N/A speed=7.63x    frame= 1989 fps=184 q=-0.0 size=N/A time=00:01:22.95 bitrate=N/A speed=7.65x    frame= 2084 fps=184 q=-0.0 size=N/A time=00:01:26.92 bitrate=N/A speed=7.66x    frame= 2175 fps=183 q=-0.0 size=N/A time=00:01:30.71 bitrate=N/A speed=7.64x    frame= 2271 fps=183 q=-0.0 size=N/A time=00:01:34.71 bitrate=N/A speed=7.65x    frame= 2365 fps=183 q=-0.0 size=N/A time=00:01:38.64 bitrate=N/A speed=7.64x    frame= 2463 fps=183 q=-0.0 size=N/A time=00:01:42.72 bitrate=N/A speed=7.65x    frame= 2553 fps=183 q=-0.0 size=N/A time=00:01:46.48 bitrate=N/A speed=7.64x    frame= 2652 fps=184 q=-0.0 size=N/A time=00:01:50.61 bitrate=N/A speed=7.66x    frame= 2747 fps=184 q=-0.0 size=N/A time=00:01:54.57 bitrate=N/A speed=7.66x    frame= 2835 fps=183 q=-0.0 size=N/A time=00:01:58.24 bitrate=N/A speed=7.64x    frame= 2929 fps=183 q=-0.0 size=N/A time=00:02:02.16 bitrate=N/A speed=7.64x    frame= 3025 fps=183 q=-0.0 size=N/A time=00:02:06.16 bitrate=N/A speed=7.64x    frame= 3106 fps=182 q=-0.0 size=N/A time=00:02:09.54 bitrate=N/A speed=7.61x    frame= 3206 fps=183 q=-0.0 size=N/A time=00:02:13.71 bitrate=N/A speed=7.62x    frame= 3294 fps=182 q=-0.0 size=N/A time=00:02:17.38 bitrate=N/A speed=7.61x    frame= 3388 fps=182 q=-0.0 size=N/A time=00:02:21.30 bitrate=N/A speed=7.61x    frame= 3495 fps=183 q=-0.0 size=N/A time=00:02:25.77 bitrate=N/A speed=7.64x    frame= 3588 fps=183 q=-0.0 size=N/A time=00:02:29.64 bitrate=N/A speed=7.63x    frame= 3677 fps=183 q=-0.0 size=N/A time=00:02:33.36 bitrate=N/A speed=7.62x    frame= 3789 fps=184 q=-0.0 size=N/A time=00:02:38.03 bitrate=N/A speed=7.66x    frame= 3891 fps=184 q=-0.0 size=N/A time=00:02:42.28 bitrate=N/A speed=7.67x    frame= 3978 fps=184 q=-0.0 size=N/A time=00:02:45.91 bitrate=N/A speed=7.66x    frame= 4078 fps=184 q=-0.0 size=N/A time=00:02:50.08 bitrate=N/A speed=7.67x    frame= 4184 fps=184 q=-0.0 size=N/A time=00:02:54.50 bitrate=N/A speed=7.69x    frame= 4267 fps=184 q=-0.0 size=N/A time=00:02:57.96 bitrate=N/A speed=7.67x    frame= 4372 fps=184 q=-0.0 size=N/A time=00:03:02.34 bitrate=N/A speed=7.68x    frame= 4468 fps=184 q=-0.0 size=N/A time=00:03:06.35 bitrate=N/A speed=7.69x    frame= 4573 fps=185 q=-0.0 size=N/A time=00:03:10.73 bitrate=N/A speed= 7.7x    frame= 4667 fps=185 q=-0.0 size=N/A time=00:03:14.65 bitrate=N/A speed= 7.7x    frame= 4757 fps=184 q=-0.0 size=N/A time=00:03:18.40 bitrate=N/A speed=7.69x    frame= 4863 fps=185 q=-0.0 size=N/A time=00:03:22.82 bitrate=N/A speed=7.71x    frame= 4964 fps=185 q=-0.0 size=N/A time=00:03:27.04 bitrate=N/A speed=7.72x    frame= 5062 fps=185 q=-0.0 size=N/A time=00:03:31.12 bitrate=N/A speed=7.72x    frame= 5163 fps=185 q=-0.0 size=N/A time=00:03:35.34 bitrate=N/A speed=7.73x    frame= 5265 fps=186 q=-0.0 size=N/A time=00:03:39.59 bitrate=N/A speed=7.74x    frame= 5353 fps=185 q=-0.0 size=N/A time=00:03:43.26 bitrate=N/A speed=7.73x    frame= 5458 fps=186 q=-0.0 size=N/A time=00:03:47.64 bitrate=N/A speed=7.74x    frame= 5566 fps=186 q=-0.0 size=N/A time=00:03:52.14 bitrate=N/A speed=7.76x    frame= 5658 fps=186 q=-0.0 size=N/A time=00:03:55.98 bitrate=N/A speed=7.75x    frame= 5761 fps=186 q=-0.0 size=N/A time=00:04:00.28 bitrate=N/A speed=7.77x    frame= 5861 fps=186 q=-0.0 size=N/A time=00:04:04.45 bitrate=N/A speed=7.77x    frame= 5959 fps=186 q=-0.0 size=N/A time=00:04:08.53 bitrate=N/A speed=7.77x    frame= 6056 fps=186 q=-0.0 size=N/A time=00:04:12.58 bitrate=N/A speed=7.77x    frame= 6163 fps=187 q=-0.0 size=N/A time=00:04:17.04 bitrate=N/A speed=7.79x    frame= 6263 fps=187 q=-0.0 size=N/A time=00:04:21.21 bitrate=N/A speed=7.79x    frame= 6354 fps=187 q=-0.0 size=N/A time=00:04:25.01 bitrate=N/A speed=7.79x    frame= 6456 fps=187 q=-0.0 size=N/A time=00:04:29.26 bitrate=N/A speed=7.79x    frame= 6565 fps=187 q=-0.0 size=N/A time=00:04:33.81 bitrate=N/A speed=7.81x    frame= 6664 fps=187 q=-0.0 size=N/A time=00:04:37.94 bitrate=N/A speed=7.81x    frame= 6767 fps=187 q=-0.0 size=N/A time=00:04:42.24 bitrate=N/A speed=7.82x    frame= 6867 fps=188 q=-0.0 size=N/A time=00:04:46.41 bitrate=N/A speed=7.82x    frame= 6971 fps=188 q=-0.0 size=N/A time=00:04:50.74 bitrate=N/A speed=7.83x    frame= 7063 fps=188 q=-0.0 size=N/A time=00:04:54.58 bitrate=N/A speed=7.82x    frame= 7169 fps=188 q=-0.0 size=N/A time=00:04:59.00 bitrate=N/A speed=7.84x    frame= 7267 fps=188 q=-0.0 size=N/A time=00:05:03.09 bitrate=N/A speed=7.83x    frame= 7363 fps=188 q=-0.0 size=N/A time=00:05:07.09 bitrate=N/A speed=7.83x    frame= 7461 fps=188 q=-0.0 size=N/A time=00:05:11.18 bitrate=N/A speed=7.84x    frame= 7544 fps=188 q=-0.0 size=N/A time=00:05:14.64 bitrate=N/A speed=7.82x    frame= 7653 fps=188 q=-0.0 size=N/A time=00:05:19.19 bitrate=N/A speed=7.83x    frame= 7751 fps=188 q=-0.0 size=N/A time=00:05:23.28 bitrate=N/A speed=7.84x    frame= 7848 fps=188 q=-0.0 size=N/A time=00:05:27.32 bitrate=N/A speed=7.83x    frame= 7940 fps=188 q=-0.0 size=N/A time=00:05:31.16 bitrate=N/A speed=7.83x    frame= 8045 fps=188 q=-0.0 size=N/A time=00:05:35.54 bitrate=N/A speed=7.84x    frame= 8144 fps=188 q=-0.0 size=N/A time=00:05:39.67 bitrate=N/A speed=7.84x    frame= 8230 fps=188 q=-0.0 size=N/A time=00:05:43.25 bitrate=N/A speed=7.83x    frame= 8338 fps=188 q=-0.0 size=N/A time=00:05:47.76 bitrate=N/A speed=7.84x    frame= 8434 fps=188 q=-0.0 size=N/A time=00:05:51.76 bitrate=N/A speed=7.84x    frame= 8542 fps=188 q=-0.0 size=N/A time=00:05:56.27 bitrate=N/A speed=7.85x    frame= 8639 fps=188 q=-0.0 size=N/A time=00:06:00.31 bitrate=N/A speed=7.85x    frame= 8736 fps=188 q=-0.0 size=N/A time=00:06:04.36 bitrate=N/A speed=7.85x    frame= 8834 fps=188 q=-0.0 size=N/A time=00:06:08.45 bitrate=N/A speed=7.85x    frame= 8934 fps=188 q=-0.0 size=N/A time=00:06:12.62 bitrate=N/A speed=7.85x    frame= 9028 fps=188 q=-0.0 size=N/A time=00:06:16.54 bitrate=N/A speed=7.85x    frame= 9133 fps=188 q=-0.0 size=N/A time=00:06:20.92 bitrate=N/A speed=7.86x    frame= 9222 fps=188 q=-0.0 size=N/A time=00:06:24.63 bitrate=N/A speed=7.85x    frame= 9330 fps=188 q=-0.0 size=N/A time=00:06:29.13 bitrate=N/A speed=7.86x    frame= 9425 fps=188 q=-0.0 size=N/A time=00:06:33.10 bitrate=N/A speed=7.86x    frame= 9529 fps=189 q=-0.0 size=N/A time=00:06:37.43 bitrate=N/A speed=7.86x    frame= 9626 fps=189 q=-0.0 size=N/A time=00:06:41.48 bitrate=N/A speed=7.86x    frame= 9723 fps=189 q=-0.0 size=N/A time=00:06:45.53 bitrate=N/A speed=7.86x    frame= 9812 fps=188 q=-0.0 size=N/A time=00:06:49.24 bitrate=N/A speed=7.86x    frame= 9920 fps=189 q=-0.0 size=N/A time=00:06:53.74 bitrate=N/A speed=7.87x    frame=10019 fps=189 q=-0.0 size=N/A time=00:06:57.87 bitrate=N/A speed=7.87x    frame=10121 fps=189 q=-0.0 size=N/A time=00:07:02.13 bitrate=N/A speed=7.87x    frame=10219 fps=189 q=-0.0 size=N/A time=00:07:06.21 bitrate=N/A speed=7.87x    frame=10317 fps=189 q=-0.0 size=N/A time=00:07:10.30 bitrate=N/A speed=7.87x    frame=10415 fps=189 q=-0.0 size=N/A time=00:07:14.39 bitrate=N/A speed=7.87x    frame=10503 fps=189 q=-0.0 size=N/A time=00:07:18.06 bitrate=N/A speed=7.86x    frame=10607 fps=189 q=-0.0 size=N/A time=00:07:22.40 bitrate=N/A speed=7.87x    frame=10716 fps=189 q=-0.0 size=N/A time=00:07:26.94 bitrate=N/A speed=7.88x    frame=10808 fps=189 q=-0.0 size=N/A time=00:07:30.78 bitrate=N/A speed=7.87x    frame=10910 fps=189 q=-0.0 size=N/A time=00:07:35.03 bitrate=N/A speed=7.88x    frame=11011 fps=189 q=-0.0 size=N/A time=00:07:39.25 bitrate=N/A speed=7.88x    frame=11109 fps=189 q=-0.0 size=N/A time=00:07:43.33 bitrate=N/A speed=7.88x    frame=11208 fps=189 q=-0.0 size=N/A time=00:07:47.46 bitrate=N/A speed=7.88x    frame=11309 fps=189 q=-0.0 size=N/A time=00:07:51.67 bitrate=N/A speed=7.88x    frame=11397 fps=189 q=-0.0 size=N/A time=00:07:55.34 bitrate=N/A speed=7.88x    frame=11511 fps=189 q=-0.0 size=N/A time=00:08:00.10 bitrate=N/A speed=7.89x    frame=11603 fps=189 q=-0.0 size=N/A time=00:08:03.94 bitrate=N/A speed=7.88x    frame=11705 fps=189 q=-0.0 size=N/A time=00:08:08.19 bitrate=N/A speed=7.89x    frame=11812 fps=189 q=-0.0 size=N/A time=00:08:12.65 bitrate=N/A speed=7.89x    frame=11913 fps=189 q=-0.0 size=N/A time=00:08:16.87 bitrate=N/A speed=7.89x    frame=12008 fps=189 q=-0.0 size=N/A time=00:08:20.83 bitrate=N/A speed=7.89x    frame=12110 fps=189 q=-0.0 size=N/A time=00:08:25.08 bitrate=N/A speed=7.89x    frame=12210 fps=189 q=-0.0 size=N/A time=00:08:29.25 bitrate=N/A speed= 7.9x    frame=12311 fps=189 q=-0.0 size=N/A time=00:08:33.47 bitrate=N/A speed= 7.9x    frame=12413 fps=189 q=-0.0 size=N/A time=00:08:37.72 bitrate=N/A speed= 7.9x    frame=12511 fps=189 q=-0.0 size=N/A time=00:08:41.81 bitrate=N/A speed= 7.9x    frame=12607 fps=189 q=-0.0 size=N/A time=00:08:45.81 bitrate=N/A speed= 7.9x    frame=12701 fps=189 q=-0.0 size=N/A time=00:08:49.73 bitrate=N/A speed= 7.9x    frame=12808 fps=189 q=-0.0 size=N/A time=00:08:54.20 bitrate=N/A speed= 7.9x    frame=12892 fps=189 q=-0.0 size=N/A time=00:08:57.70 bitrate=N/A speed= 7.9x    frame=13005 fps=190 q=-0.0 size=N/A time=00:09:02.41 bitrate=N/A speed= 7.9x    frame=13100 fps=189 q=-0.0 size=N/A time=00:09:06.37 bitrate=N/A speed= 7.9x    frame=13196 fps=189 q=-0.0 size=N/A time=00:09:10.38 bitrate=N/A speed= 7.9x    frame=13285 fps=189 q=-0.0 size=N/A time=00:09:14.09 bitrate=N/A speed= 7.9x    frame=13377 fps=189 q=-0.0 size=N/A time=00:09:17.93 bitrate=N/A speed=7.89x    frame=13488 fps=189 q=-0.0 size=N/A time=00:09:22.56 bitrate=N/A speed= 7.9x    frame=13575 fps=189 q=-0.0 size=N/A time=00:09:26.19 bitrate=N/A speed=7.89x    frame=13668 fps=189 q=-0.0 size=N/A time=00:09:30.06 bitrate=N/A speed=7.89x    frame=13770 fps=189 q=-0.0 size=N/A time=00:09:34.32 bitrate=N/A speed=7.89x    frame=13873 fps=189 q=-0.0 size=N/A time=00:09:38.61 bitrate=N/A speed= 7.9x    frame=13972 fps=189 q=-0.0 size=N/A time=00:09:42.74 bitrate=N/A speed= 7.9x    frame=14073 fps=189 q=-0.0 size=N/A time=00:09:46.96 bitrate=N/A speed= 7.9x    frame=14171 fps=189 q=-0.0 size=N/A time=00:09:51.04 bitrate=N/A speed= 7.9x    frame=14259 fps=189 q=-0.0 size=N/A time=00:09:54.71 bitrate=N/A speed= 7.9x    frame=14375 fps=190 q=-0.0 size=N/A time=00:09:59.55 bitrate=N/A speed= 7.9x    frame=14469 fps=189 q=-0.0 size=N/A time=00:10:03.47 bitrate=N/A speed= 7.9x    frame=14569 fps=190 q=-0.0 size=N/A time=00:10:07.64 bitrate=N/A speed=7.91x    frame=14670 fps=190 q=-0.0 size=N/A time=00:10:11.86 bitrate=N/A speed=7.91x    frame=14769 fps=190 q=-0.0 size=N/A time=00:10:15.99 bitrate=N/A speed=7.91x    frame=14856 fps=189 q=-0.0 size=N/A time=00:10:19.61 bitrate=N/A speed= 7.9x    frame=14957 fps=189 q=-0.0 size=N/A time=00:10:23.83 bitrate=N/A speed= 7.9x    frame=15066 fps=190 q=-0.0 size=N/A time=00:10:28.37 bitrate=N/A speed=7.91x    frame=15164 fps=190 q=-0.0 size=N/A time=00:10:32.46 bitrate=N/A speed=7.91x    frame=15262 fps=190 q=-0.0 size=N/A time=00:10:36.55 bitrate=N/A speed=7.91x    frame=15360 fps=190 q=-0.0 size=N/A time=00:10:40.64 bitrate=N/A speed=7.91x    frame=15456 fps=190 q=-0.0 size=N/A time=00:10:44.64 bitrate=N/A speed=7.91x    frame=15557 fps=190 q=-0.0 size=N/A time=00:10:48.85 bitrate=N/A speed=7.91x    frame=15642 fps=190 q=-0.0 size=N/A time=00:10:52.40 bitrate=N/A speed= 7.9x    frame=15743 fps=190 q=-0.0 size=N/A time=00:10:56.61 bitrate=N/A speed=7.91x    frame=15835 fps=189 q=-0.0 size=N/A time=00:11:00.45 bitrate=N/A speed= 7.9x    frame=15935 fps=189 q=-0.0 size=N/A time=00:11:04.62 bitrate=N/A speed= 7.9x    frame=16036 fps=190 q=-0.0 size=N/A time=00:11:08.83 bitrate=N/A speed=7.91x    frame=16140 fps=190 q=-0.0 size=N/A time=00:11:13.17 bitrate=N/A speed=7.91x    frame=16237 fps=190 q=-0.0 size=N/A time=00:11:17.21 bitrate=N/A speed=7.91x    frame=16338 fps=190 q=-0.0 size=N/A time=00:11:21.43 bitrate=N/A speed=7.91x    frame=16435 fps=190 q=-0.0 size=N/A time=00:11:25.47 bitrate=N/A speed=7.91x    frame=16522 fps=190 q=-0.0 size=N/A time=00:11:29.10 bitrate=N/A speed= 7.9x    frame=16624 fps=190 q=-0.0 size=N/A time=00:11:33.35 bitrate=N/A speed=7.91x    frame=16722 fps=190 q=-0.0 size=N/A time=00:11:37.44 bitrate=N/A speed=7.91x    frame=16824 fps=190 q=-0.0 size=N/A time=00:11:41.70 bitrate=N/A speed=7.91x    frame=16922 fps=190 q=-0.0 size=N/A time=00:11:45.78 bitrate=N/A speed=7.91x    frame=17017 fps=190 q=-0.0 size=N/A time=00:11:49.75 bitrate=N/A speed=7.91x    frame=17111 fps=190 q=-0.0 size=N/A time=00:11:53.67 bitrate=N/A speed=7.91x    frame=17210 fps=190 q=-0.0 size=N/A time=00:11:57.80 bitrate=N/A speed=7.91x    frame=17313 fps=190 q=-0.0 size=N/A time=00:12:02.09 bitrate=N/A speed=7.91x    frame=17413 fps=190 q=-0.0 size=N/A time=00:12:06.26 bitrate=N/A speed=7.91x    frame=17515 fps=190 q=-0.0 size=N/A time=00:12:10.52 bitrate=N/A speed=7.91x    frame=17605 fps=190 q=-0.0 size=N/A time=00:12:14.27 bitrate=N/A speed=7.91x    frame=17707 fps=190 q=-0.0 size=N/A time=00:12:18.52 bitrate=N/A speed=7.91x    frame=17805 fps=190 q=-0.0 size=N/A time=00:12:22.61 bitrate=N/A speed=7.91x    frame=17905 fps=190 q=-0.0 size=N/A time=00:12:26.78 bitrate=N/A speed=7.91x    frame=18000 fps=190 q=-0.0 size=N/A time=00:12:30.75 bitrate=N/A speed=7.91x    frame=18098 fps=190 q=-0.0 size=N/A time=00:12:34.83 bitrate=N/A speed=7.91x    frame=18196 fps=190 q=-0.0 size=N/A time=00:12:38.92 bitrate=N/A speed=7.91x    frame=18285 fps=190 q=-0.0 size=N/A time=00:12:42.63 bitrate=N/A speed=7.91x    frame=18389 fps=190 q=-0.0 size=N/A time=00:12:46.97 bitrate=N/A speed=7.91x    frame=18489 fps=190 q=-0.0 size=N/A time=00:12:51.14 bitrate=N/A speed=7.91x    frame=18587 fps=190 q=-0.0 size=N/A time=00:12:55.23 bitrate=N/A speed=7.91x    frame=18683 fps=190 q=-0.0 size=N/A time=00:12:59.23 bitrate=N/A speed=7.91x    frame=18787 fps=190 q=-0.0 size=N/A time=00:13:03.57 bitrate=N/A speed=7.91x    frame=18884 fps=190 q=-0.0 size=N/A time=00:13:07.62 bitrate=N/A speed=7.91x    frame=18976 fps=190 q=-0.0 size=N/A time=00:13:11.45 bitrate=N/A speed=7.91x    frame=19073 fps=190 q=-0.0 size=N/A time=00:13:15.50 bitrate=N/A speed=7.91x    frame=19164 fps=190 q=-0.0 size=N/A time=00:13:19.29 bitrate=N/A speed=7.91x    frame=19266 fps=190 q=-0.0 size=N/A time=00:13:23.55 bitrate=N/A speed=7.91x    frame=19364 fps=190 q=-0.0 size=N/A time=00:13:27.64 bitrate=N/A speed=7.91x    frame=19456 fps=190 q=-0.0 size=N/A time=00:13:31.47 bitrate=N/A speed= 7.9x    frame=19548 fps=189 q=-0.0 size=N/A time=00:13:35.31 bitrate=N/A speed= 7.9x    frame=19638 fps=189 q=-0.0 size=N/A time=00:13:39.10 bitrate=N/A speed= 7.9x    frame=19734 fps=189 q=-0.0 size=N/A time=00:13:43.07 bitrate=N/A speed= 7.9x    frame=19827 fps=189 q=-0.0 size=N/A time=00:13:46.95 bitrate=N/A speed= 7.9x    frame=19921 fps=189 q=-0.0 size=N/A time=00:13:50.87 bitrate=N/A speed= 7.9x    frame=20014 fps=189 q=-0.0 size=N/A time=00:13:54.75 bitrate=N/A speed=7.89x    frame=20111 fps=189 q=-0.0 size=N/A time=00:13:58.79 bitrate=N/A speed=7.89x    frame=20203 fps=189 q=-0.0 size=N/A time=00:14:02.63 bitrate=N/A speed=7.89x    frame=20282 fps=189 q=-0.0 size=N/A time=00:14:05.92 bitrate=N/A speed=7.88x    frame=20395 fps=189 q=-0.0 size=N/A time=00:14:10.64 bitrate=N/A speed=7.89x    frame=20492 fps=189 q=-0.0 size=N/A time=00:14:14.68 bitrate=N/A speed=7.89x    frame=20587 fps=189 q=-0.0 size=N/A time=00:14:18.64 bitrate=N/A speed=7.89x    frame=20678 fps=189 q=-0.0 size=N/A time=00:14:22.44 bitrate=N/A speed=7.89x    frame=20780 fps=189 q=-0.0 size=N/A time=00:14:26.69 bitrate=N/A speed=7.89x    frame=20878 fps=189 q=-0.0 size=N/A time=00:14:30.78 bitrate=N/A speed=7.89x    frame=20976 fps=189 q=-0.0 size=N/A time=00:14:34.87 bitrate=N/A speed=7.89x    frame=21064 fps=189 q=-0.0 size=N/A time=00:14:38.54 bitrate=N/A speed=7.88x    frame=21172 fps=189 q=-0.0 size=N/A time=00:14:43.04 bitrate=N/A speed=7.89x    frame=21266 fps=189 q=-0.0 size=N/A time=00:14:46.96 bitrate=N/A speed=7.89x    frame=21361 fps=189 q=-0.0 size=N/A time=00:14:50.93 bitrate=N/A speed=7.89x    frame=21462 fps=189 q=-0.0 size=N/A time=00:14:55.14 bitrate=N/A speed=7.89x    frame=21560 fps=189 q=-0.0 size=N/A time=00:14:59.23 bitrate=N/A speed=7.89x    frame=21649 fps=189 q=-0.0 size=N/A time=00:15:02.94 bitrate=N/A speed=7.89x    frame=21747 fps=189 q=-0.0 size=N/A time=00:15:07.03 bitrate=N/A speed=7.89x    frame=21847 fps=189 q=-0.0 size=N/A time=00:15:11.20 bitrate=N/A speed=7.89x    frame=21948 fps=189 q=-0.0 size=N/A time=00:15:15.41 bitrate=N/A speed=7.89x    frame=22043 fps=189 q=-0.0 size=N/A time=00:15:19.37 bitrate=N/A speed=7.89x    frame=22137 fps=189 q=-0.0 size=N/A time=00:15:23.29 bitrate=N/A speed=7.89x    frame=22221 fps=189 q=-0.0 size=N/A time=00:15:26.80 bitrate=N/A speed=7.88x    frame=22320 fps=189 q=-0.0 size=N/A time=00:15:30.93 bitrate=N/A speed=7.88x    frame=22419 fps=189 q=-0.0 size=N/A time=00:15:35.05 bitrate=N/A speed=7.88x    frame=22518 fps=189 q=-0.0 size=N/A time=00:15:39.18 bitrate=N/A speed=7.88x    frame=22621 fps=189 q=-0.0 size=N/A time=00:15:43.48 bitrate=N/A speed=7.88x    frame=22713 fps=189 q=-0.0 size=N/A time=00:15:47.32 bitrate=N/A speed=7.88x    frame=22814 fps=189 q=-0.0 size=N/A time=00:15:51.53 bitrate=N/A speed=7.88x    frame=22909 fps=189 q=-0.0 size=N/A time=00:15:55.49 bitrate=N/A speed=7.88x    frame=23009 fps=189 q=-0.0 size=N/A time=00:15:59.66 bitrate=N/A speed=7.88x    frame=23102 fps=189 q=-0.0 size=N/A time=00:16:03.54 bitrate=N/A speed=7.88x    frame=23198 fps=189 q=-0.0 size=N/A time=00:16:07.54 bitrate=N/A speed=7.88x    frame=23296 fps=189 q=-0.0 size=N/A time=00:16:11.63 bitrate=N/A speed=7.88x    frame=23386 fps=189 q=-0.0 size=N/A time=00:16:15.39 bitrate=N/A speed=7.88x    frame=23489 fps=189 q=-0.0 size=N/A time=00:16:19.68 bitrate=N/A speed=7.88x    frame=23577 fps=189 q=-0.0 size=N/A time=00:16:23.35 bitrate=N/A speed=7.88x    frame=23685 fps=189 q=-0.0 size=N/A time=00:16:27.86 bitrate=N/A speed=7.88x    frame=23776 fps=189 q=-0.0 size=N/A time=00:16:31.65 bitrate=N/A speed=7.88x    frame=23877 fps=189 q=-0.0 size=N/A time=00:16:35.86 bitrate=N/A speed=7.88x    frame=23972 fps=189 q=-0.0 size=N/A time=00:16:39.83 bitrate=N/A speed=7.88x    frame=24066 fps=189 q=-0.0 size=N/A time=00:16:43.75 bitrate=N/A speed=7.88x    frame=24163 fps=189 q=-0.0 size=N/A time=00:16:47.79 bitrate=N/A speed=7.88x    frame=24255 fps=189 q=-0.0 size=N/A time=00:16:51.63 bitrate=N/A speed=7.88x    frame=24353 fps=189 q=-0.0 size=N/A time=00:16:55.72 bitrate=N/A speed=7.88x    frame=24444 fps=189 q=-0.0 size=N/A time=00:16:59.51 bitrate=N/A speed=7.88x    frame=24543 fps=189 q=-0.0 size=N/A time=00:17:03.64 bitrate=N/A speed=7.88x    frame=24635 fps=189 q=-0.0 size=N/A time=00:17:07.48 bitrate=N/A speed=7.87x    frame=24736 fps=189 q=-0.0 size=N/A time=00:17:11.69 bitrate=N/A speed=7.87x    frame=24832 fps=189 q=-0.0 size=N/A time=00:17:15.70 bitrate=N/A speed=7.87x    frame=24929 fps=189 q=-0.0 size=N/A time=00:17:19.74 bitrate=N/A speed=7.87x    frame=25024 fps=189 q=-0.0 size=N/A time=00:17:23.70 bitrate=N/A speed=7.87x    frame=25119 fps=189 q=-0.0 size=N/A time=00:17:27.67 bitrate=N/A speed=7.87x    frame=25215 fps=189 q=-0.0 size=N/A time=00:17:31.67 bitrate=N/A speed=7.87x    frame=25310 fps=189 q=-0.0 size=N/A time=00:17:35.63 bitrate=N/A speed=7.87x    frame=25405 fps=189 q=-0.0 size=N/A time=00:17:39.60 bitrate=N/A speed=7.87x    frame=25503 fps=189 q=-0.0 size=N/A time=00:17:43.68 bitrate=N/A speed=7.87x    frame=25598 fps=189 q=-0.0 size=N/A time=00:17:47.64 bitrate=N/A speed=7.87x    frame=25696 fps=189 q=-0.0 size=N/A time=00:17:51.73 bitrate=N/A speed=7.87x    frame=25786 fps=189 q=-0.0 size=N/A time=00:17:55.49 bitrate=N/A speed=7.87x    frame=25884 fps=189 q=-0.0 size=N/A time=00:17:59.57 bitrate=N/A speed=7.87x    frame=25982 fps=189 q=-0.0 size=N/A time=00:18:03.66 bitrate=N/A speed=7.87x    frame=26070 fps=189 q=-0.0 size=N/A time=00:18:07.33 bitrate=N/A speed=7.87x    frame=26170 fps=189 q=-0.0 size=N/A time=00:18:11.50 bitrate=N/A speed=7.87x    frame=26264 fps=189 q=-0.0 size=N/A time=00:18:15.42 bitrate=N/A speed=7.86x    frame=26355 fps=189 q=-0.0 size=N/A time=00:18:19.22 bitrate=N/A speed=7.86x    frame=26438 fps=188 q=-0.0 size=N/A time=00:18:22.68 bitrate=N/A speed=7.86x    frame=26541 fps=188 q=-0.0 size=N/A time=00:18:26.98 bitrate=N/A speed=7.86x    frame=26633 fps=188 q=-0.0 size=N/A time=00:18:30.81 bitrate=N/A speed=7.86x    frame=26723 fps=188 q=-0.0 size=N/A time=00:18:34.57 bitrate=N/A speed=7.86x    frame=26813 fps=188 q=-0.0 size=N/A time=00:18:38.32 bitrate=N/A speed=7.85x    frame=26910 fps=188 q=-0.0 size=N/A time=00:18:42.37 bitrate=N/A speed=7.85x    frame=26999 fps=188 q=-0.0 size=N/A time=00:18:46.08 bitrate=N/A speed=7.85x    frame=27090 fps=188 q=-0.0 size=N/A time=00:18:49.87 bitrate=N/A speed=7.85x    frame=27184 fps=188 q=-0.0 size=N/A time=00:18:53.79 bitrate=N/A speed=7.85x    frame=27279 fps=188 q=-0.0 size=N/A time=00:18:57.76 bitrate=N/A speed=7.85x    frame=27378 fps=188 q=-0.0 size=N/A time=00:19:01.89 bitrate=N/A speed=7.85x    frame=27454 fps=188 q=-0.0 size=N/A time=00:19:05.10 bitrate=N/A speed=7.84x    frame=27562 fps=188 q=-0.0 size=N/A time=00:19:09.56 bitrate=N/A speed=7.85x    frame=27662 fps=188 q=-0.0 size=N/A time=00:19:13.73 bitrate=N/A speed=7.85x    frame=27755 fps=188 q=-0.0 size=N/A time=00:19:17.61 bitrate=N/A speed=7.85x    frame=27850 fps=188 q=-0.0 size=N/A time=00:19:21.57 bitrate=N/A speed=7.85x    frame=27952 fps=188 q=-0.0 size=N/A time=00:19:25.83 bitrate=N/A speed=7.85x    frame=28050 fps=188 q=-0.0 size=N/A time=00:19:29.91 bitrate=N/A speed=7.85x    frame=28140 fps=188 q=-0.0 size=N/A time=00:19:33.67 bitrate=N/A speed=7.85x    frame=28245 fps=188 q=-0.0 size=N/A time=00:19:38.05 bitrate=N/A speed=7.85x    frame=28341 fps=188 q=-0.0 size=N/A time=00:19:42.05 bitrate=N/A speed=7.85x    frame=28431 fps=188 q=-0.0 size=N/A time=00:19:45.80 bitrate=N/A speed=7.85x    frame=28518 fps=188 q=-0.0 size=N/A time=00:19:49.43 bitrate=N/A speed=7.84x    frame=28608 fps=188 q=-0.0 size=N/A time=00:19:53.19 bitrate=N/A speed=7.84x    frame=28709 fps=188 q=-0.0 size=N/A time=00:19:57.40 bitrate=N/A speed=7.84x    frame=28807 fps=188 q=-0.0 size=N/A time=00:20:01.49 bitrate=N/A speed=7.84x    frame=28903 fps=188 q=-0.0 size=N/A time=00:20:05.49 bitrate=N/A speed=7.84x    frame=29004 fps=188 q=-0.0 size=N/A time=00:20:09.70 bitrate=N/A speed=7.84x    frame=29097 fps=188 q=-0.0 size=N/A time=00:20:13.58 bitrate=N/A speed=7.84x    frame=29199 fps=188 q=-0.0 size=N/A time=00:20:17.84 bitrate=N/A speed=7.84x    frame=29289 fps=188 q=-0.0 size=N/A time=00:20:21.59 bitrate=N/A speed=7.84x    frame=29393 fps=188 q=-0.0 size=N/A time=00:20:25.93 bitrate=N/A speed=7.84x    frame=29484 fps=188 q=-0.0 size=N/A time=00:20:29.72 bitrate=N/A speed=7.84x    frame=29587 fps=188 q=-0.0 size=N/A time=00:20:34.02 bitrate=N/A speed=7.84x    frame=29684 fps=188 q=-0.0 size=N/A time=00:20:38.07 bitrate=N/A speed=7.84x    frame=29783 fps=188 q=-0.0 size=N/A time=00:20:42.19 bitrate=N/A speed=7.84x    frame=29881 fps=188 q=-0.0 size=N/A time=00:20:46.28 bitrate=N/A speed=7.84x    frame=29975 fps=188 q=-0.0 size=N/A time=00:20:50.20 bitrate=N/A speed=7.84x    frame=30068 fps=188 q=-0.0 size=N/A time=00:20:54.08 bitrate=N/A speed=7.84x    frame=30160 fps=188 q=-0.0 size=N/A time=00:20:57.92 bitrate=N/A speed=7.84x    frame=30254 fps=188 q=-0.0 size=N/A time=00:21:01.84 bitrate=N/A speed=7.84x    frame=30339 fps=188 q=-0.0 size=N/A time=00:21:05.38 bitrate=N/A speed=7.84x    frame=30429 fps=188 q=-0.0 size=N/A time=00:21:09.14 bitrate=N/A speed=7.84x    frame=30530 fps=188 q=-0.0 size=N/A time=00:21:13.35 bitrate=N/A speed=7.84x    frame=30621 fps=188 q=-0.0 size=N/A time=00:21:17.15 bitrate=N/A speed=7.84x    frame=30726 fps=188 q=-0.0 size=N/A time=00:21:21.53 bitrate=N/A speed=7.84x    frame=30828 fps=188 q=-0.0 size=N/A time=00:21:25.78 bitrate=N/A speed=7.84x    frame=30915 fps=188 q=-0.0 size=N/A time=00:21:29.41 bitrate=N/A speed=7.84x    frame=31020 fps=188 q=-0.0 size=N/A time=00:21:33.79 bitrate=N/A speed=7.84x    frame=31117 fps=188 q=-0.0 size=N/A time=00:21:37.83 bitrate=N/A speed=7.84x    frame=31212 fps=188 q=-0.0 size=N/A time=00:21:41.80 bitrate=N/A speed=7.84x    frame=31303 fps=188 q=-0.0 size=N/A time=00:21:45.59 bitrate=N/A speed=7.84x    frame=31404 fps=188 q=-0.0 size=N/A time=00:21:49.80 bitrate=N/A speed=7.84x    frame=31501 fps=188 q=-0.0 size=N/A time=00:21:53.85 bitrate=N/A speed=7.84x    frame=31596 fps=188 q=-0.0 size=N/A time=00:21:57.81 bitrate=N/A speed=7.84x    frame=31698 fps=188 q=-0.0 size=N/A time=00:22:02.07 bitrate=N/A speed=7.84x    frame=31795 fps=188 q=-0.0 size=N/A time=00:22:06.11 bitrate=N/A speed=7.84x    frame=31895 fps=188 q=-0.0 size=N/A time=00:22:10.28 bitrate=N/A speed=7.84x    frame=31994 fps=188 q=-0.0 size=N/A time=00:22:14.41 bitrate=N/A speed=7.84x    frame=32093 fps=188 q=-0.0 size=N/A time=00:22:18.54 bitrate=N/A speed=7.84x    frame=32187 fps=188 q=-0.0 size=N/A time=00:22:22.46 bitrate=N/A speed=7.84x    frame=32285 fps=188 q=-0.0 size=N/A time=00:22:26.55 bitrate=N/A speed=7.84x    frame=32383 fps=188 q=-0.0 size=N/A time=00:22:30.64 bitrate=N/A speed=7.84x    frame=32479 fps=188 q=-0.0 size=N/A time=00:22:34.64 bitrate=N/A speed=7.84x    frame=32576 fps=188 q=-0.0 size=N/A time=00:22:38.69 bitrate=N/A speed=7.84x    frame=32661 fps=188 q=-0.0 size=N/A time=00:22:42.23 bitrate=N/A speed=7.84x    frame=32769 fps=188 q=-0.0 size=N/A time=00:22:46.74 bitrate=N/A speed=7.84x    frame=32868 fps=188 q=-0.0 size=N/A time=00:22:50.86 bitrate=N/A speed=7.84x    frame=32966 fps=188 q=-0.0 size=N/A time=00:22:54.95 bitrate=N/A speed=7.84x    frame=33066 fps=188 q=-0.0 size=N/A time=00:22:59.12 bitrate=N/A speed=7.84x    frame=33153 fps=188 q=-0.0 size=N/A time=00:23:02.75 bitrate=N/A speed=7.84x    frame=33266 fps=188 q=-0.0 size=N/A time=00:23:07.46 bitrate=N/A speed=7.84x    frame=33360 fps=188 q=-0.0 size=N/A time=00:23:11.39 bitrate=N/A speed=7.84x    frame=33458 fps=188 q=-0.0 size=N/A time=00:23:15.47 bitrate=N/A speed=7.84x    frame=33564 fps=188 q=-0.0 size=N/A time=00:23:19.89 bitrate=N/A speed=7.84x    frame=33653 fps=188 q=-0.0 size=N/A time=00:23:23.61 bitrate=N/A speed=7.84x    frame=33756 fps=188 q=-0.0 size=N/A time=00:23:27.90 bitrate=N/A speed=7.84x    frame=33851 fps=188 q=-0.0 size=N/A time=00:23:31.86 bitrate=N/A speed=7.84x    frame=33955 fps=188 q=-0.0 size=N/A time=00:23:36.20 bitrate=N/A speed=7.84x    [Parsed_psnr_10 @ 000001e3cd56f300] PSNR y:46.036979 u:51.248038 v:50.636049 average:47.145794 min:42.292577 max:inf
[out#0/null @ 000001e3c7d86ec0] video:14628KiB audio:266244KiB subtitle:0KiB other streams:0KiB global headers:0KiB muxing overhead: unknown
frame=34044 fps=188 q=-0.0 Lsize=N/A time=00:23:39.91 bitrate=N/A speed=7.85x    
